<?xml version="1.0" standalone="no"?>
<!DOCTYPE svg PUBLIC "-//W3C//DTD SVG 20010904//EN"
 "http://www.w3.org/TR/2001/REC-SVG-20010904/DTD/svg10.dtd">
<svg version="1.0" xmlns="http://www.w3.org/2000/svg"
 width="298.000000pt" height="136.000000pt" viewBox="0 0 298.000000 136.000000"
 preserveAspectRatio="xMidYMid meet">

<g transform="translate(0.000000,136.000000) scale(0.100000,-0.100000)"
fill="#000000" stroke="none">
<path d="M0 680 l0 -680 1214 0 1215 0 55 72 c31 39 56 76 56 82 0 7 9 19 20
29 11 9 20 15 20 12 0 -7 -61 -108 -84 -140 -12 -16 -26 -36 -30 -42 -6 -10
48 -13 253 -13 l261 0 0 680 0 680 -1490 0 -1490 0 0 -680z m190 635 c0 -8 -7
-15 -15 -15 -26 0 -18 20 13 29 1 1 2 -6 2 -14z m874 -300 c1 -113 -4 -161
-22 -245 -47 -208 -89 -309 -125 -298 -39 13 -71 153 -88 383 -6 88 -14 176
-18 195 -7 32 -9 28 -29 -60 -37 -161 -52 -269 -59 -412 -3 -76 -10 -135 -15
-132 -13 8 -9 198 6 314 16 118 60 320 76 350 29 54 49 7 61 -143 28 -340 48
-467 74 -467 29 0 96 237 117 416 9 79 9 124 0 199 -7 53 -9 102 -5 108 14 23
26 -70 27 -208z m832 40 c-13 -66 -26 -200 -26 -260 l1 -60 29 70 c33 75 52
101 69 91 6 -4 11 -24 11 -44 0 -59 13 -69 40 -32 16 23 25 54 30 109 5 43 13
96 20 119 15 56 35 56 26 0 -15 -102 -27 -261 -21 -277 5 -12 11 -6 24 24 29
70 51 105 66 105 10 0 15 -11 16 -32 1 -18 4 -44 8 -58 7 -24 9 -23 46 29 21
30 41 48 43 41 5 -14 -45 -88 -71 -104 -23 -14 -47 15 -47 58 0 45 -16 21 -48
-69 -15 -43 -33 -80 -39 -82 -12 -4 -16 7 -28 80 -6 38 -7 39 -26 21 -29 -26
-53 -8 -59 46 l-5 44 -23 -50 c-12 -27 -28 -69 -35 -93 -7 -25 -18 -46 -24
-48 -16 -6 -33 60 -33 125 l0 54 -40 -32 c-35 -28 -40 -37 -40 -72 0 -75 -69
-158 -106 -127 -28 23 -17 57 43 137 l22 29 -28 27 c-27 26 -28 26 -52 8 -39
-30 -60 -34 -80 -16 -11 10 -19 28 -19 41 0 27 -16 31 -24 5 -10 -29 -53 -65
-70 -59 -35 14 -8 147 29 147 18 0 18 1 -1 -45 -8 -20 -14 -47 -12 -58 2 -18
9 -13 41 31 21 29 42 50 47 47 6 -3 10 -24 10 -46 0 -27 5 -42 16 -46 23 -9
43 6 80 58 31 45 64 63 64 36 0 -8 -7 -17 -15 -21 -24 -9 -17 -39 15 -64 l30
-23 45 32 c35 25 46 40 50 68 10 67 27 156 31 163 14 22 26 5 20 -27z m-687
-108 c15 -18 3 -29 -20 -17 -14 8 -22 4 -38 -16 -12 -15 -21 -30 -21 -35 0 -4
-3 -16 -6 -26 -3 -10 6 1 21 25 14 23 30 42 34 42 5 0 11 -18 15 -39 11 -71
72 -58 98 20 23 70 40 63 32 -12 -7 -69 -7 -68 -5 -88 2 -25 37 16 60 69 20
46 41 73 41 51 0 -16 -39 -102 -61 -133 -28 -38 -62 -35 -69 7 -4 20 -11 29
-21 26 -55 -15 -63 -14 -85 14 l-22 28 -16 -32 c-31 -59 -68 -30 -47 38 21 70
81 113 110 78z m1591 -546 c0 -5 -7 -11 -15 -15 -9 -3 -15 0 -15 9 0 8 7 15
15 15 8 0 15 -4 15 -9z m-2242 -88 c-13 -3 -18 -15 -18 -44 0 -21 -4 -39 -10
-39 -5 0 -10 18 -10 39 0 29 -5 41 -17 44 -10 3 2 5 27 5 25 0 37 -2 28 -5z
m162 -13 c0 -15 7 -20 25 -20 18 0 25 5 25 20 0 11 5 20 10 20 6 0 10 -20 10
-45 0 -25 -4 -45 -10 -45 -5 0 -10 9 -10 20 0 15 -7 20 -25 20 -18 0 -25 -5
-25 -20 0 -11 -4 -20 -10 -20 -5 0 -10 20 -10 45 0 25 5 45 10 45 6 0 10 -9
10 -20z m258 13 c-32 -5 -38 -23 -9 -23 11 0 23 -4 26 -10 4 -6 -5 -10 -19
-10 -35 0 -34 -27 2 -33 22 -3 20 -4 -10 -6 l-38 -1 0 45 0 45 38 -1 c30 -2
32 -3 10 -6z m370 0 c-16 -2 -28 -11 -28 -19 0 -8 11 -15 28 -15 l27 -2 -27
-4 c-20 -3 -28 -10 -28 -24 0 -10 -4 -19 -10 -19 -5 0 -10 20 -10 45 l0 45 38
-1 c30 -2 32 -3 10 -6z m182 -27 c0 -19 6 -36 13 -39 24 -8 37 6 37 39 0 19 5
34 10 34 13 0 13 -46 0 -71 -12 -21 -50 -25 -68 -7 -14 14 -16 78 -2 78 6 0
10 -15 10 -34z m268 27 c-13 -3 -18 -15 -18 -44 0 -21 -4 -39 -10 -39 -5 0
-10 18 -10 39 0 29 -5 41 -17 44 -10 3 2 5 27 5 25 0 37 -2 28 -5z m162 -27
c0 -19 6 -36 13 -39 24 -8 37 6 37 39 0 19 5 34 10 34 13 0 13 -46 0 -71 -12
-21 -50 -25 -68 -7 -14 14 -16 78 -2 78 6 0 10 -15 10 -34z m287 18 c3 -8 1
-20 -5 -26 -8 -8 -8 -17 -1 -30 7 -12 6 -18 -1 -18 -6 0 -13 7 -16 15 -8 21
-42 19 -47 -2 -3 -10 -5 3 -6 30 l-1 47 35 0 c23 0 38 -6 42 -16z m191 9 c-32
-5 -38 -23 -8 -23 11 0 20 -4 20 -10 0 -5 -9 -10 -20 -10 -11 0 -20 -7 -20
-15 0 -17 35 -21 45 -5 11 18 47 12 43 -7 -2 -10 -7 -17 -11 -15 -4 1 -27 2
-52 2 l-45 0 0 45 0 45 38 -1 c30 -2 32 -3 10 -6z m202 -33 c0 -5 -9 -14 -21
-20 -19 -11 -20 -10 -9 9 11 22 30 29 30 11z m50 -110 c0 -5 -4 -10 -10 -10
-5 0 -10 5 -10 10 0 6 5 10 10 10 6 0 10 -4 10 -10z m-272 -71 c-2 -6 -8 -10
-13 -10 -5 0 -11 4 -13 10 -2 6 4 11 13 11 9 0 15 -5 13 -11z m-123 -68 c3 -5
1 -12 -4 -15 -5 -3 -11 1 -15 9 -6 16 9 21 19 6z m105 -11 c0 -5 -4 -10 -10
-10 -5 0 -10 5 -10 10 0 6 5 10 10 10 6 0 10 -4 10 -10z"/>
<path d="M1692 726 c-35 -55 -41 -79 -15 -74 21 4 55 71 51 100 -3 20 -8 17
-36 -26z"/>
<path d="M2180 296 c0 -11 9 -16 26 -16 31 0 28 23 -4 28 -15 2 -22 -2 -22
-12z"/>
</g>
</svg>
